<svg xmlns="http://www.w3.org/2000/svg" viewBox="0 0 800 800" role="img" aria-label="Automatic slack adjuster">
<defs>
  <radialGradient id="bg" cx="50%" cy="38%" r="75%">
    <stop offset="0" stop-color="#ffffff"/><stop offset="1" stop-color="#e6e9ee"/>
  </radialGradient>
  <linearGradient id="metal" x1="0" x2="1" y1="0" y2="0">
    <stop offset="0" stop-color="#4a515e"/><stop offset=".35" stop-color="#a3aab6"/>
    <stop offset=".55" stop-color="#dfe3e9"/><stop offset="1" stop-color="#6b7280"/>
  </linearGradient>
  <linearGradient id="metalV" x1="0" x2="0" y1="0" y2="1">
    <stop offset="0" stop-color="#dfe3e9"/><stop offset=".5" stop-color="#a3aab6"/>
    <stop offset="1" stop-color="#4a515e"/>
  </linearGradient>
  <linearGradient id="dark" x1="0" x2="1" y1="0" y2="0">
    <stop offset="0" stop-color="#1d2027"/><stop offset=".45" stop-color="#4a515e"/>
    <stop offset="1" stop-color="#1d2027"/>
  </linearGradient>
  <linearGradient id="red" x1="0" x2="1" y1="0" y2="0">
    <stop offset="0" stop-color="#a8001f"/><stop offset=".45" stop-color="#e4002b"/>
    <stop offset="1" stop-color="#8e001a"/>
  </linearGradient>
  <radialGradient id="amber" cx="40%" cy="35%" r="70%">
    <stop offset="0" stop-color="#ffe29a"/><stop offset=".6" stop-color="#f5a524"/>
    <stop offset="1" stop-color="#c77700"/>
  </radialGradient>
  <radialGradient id="lens" cx="40%" cy="35%" r="70%">
    <stop offset="0" stop-color="#ffffff"/><stop offset=".55" stop-color="#cfe6ff"/>
    <stop offset="1" stop-color="#7d93ad"/>
  </radialGradient>
  <radialGradient id="redlens" cx="40%" cy="35%" r="70%">
    <stop offset="0" stop-color="#ff8a95"/><stop offset=".6" stop-color="#e4002b"/>
    <stop offset="1" stop-color="#7a0016"/>
  </radialGradient>
  <filter id="soft" x="-20%" y="-20%" width="140%" height="140%">
    <feGaussianBlur stdDeviation="14"/>
  </filter>
</defs>
<rect width="800" height="800" fill="url(#bg)"/>
<ellipse cx="400" cy="660" rx="260" ry="34" fill="#000" opacity=".16" filter="url(#soft)"/>
<path d="M 470 470 L 250 200" stroke="url(#metal)" stroke-width="70" stroke-linecap="round"/><circle cx="250" cy="200" r="30" fill="#2b303a"/><circle cx="250" cy="200" r="12" fill="#e6e9ee"/><circle cx="470" cy="470" r="105" fill="url(#metal)" stroke="#2b303a" stroke-width="4"/><circle cx="470" cy="470" r="52" fill="#e6e9ee"/><line x1="504.0" y1="470.0" x2="520.0" y2="470.0" stroke="#2b303a" stroke-width="6"/><line x1="502.3359215540352" y1="480.5065778087482" x2="517.5528258147576" y2="485.45084971874735" stroke="#2b303a" stroke-width="6"/><line x1="497.5065778087482" y1="489.9846985779441" x2="510.45084971874735" y2="499.38926261462365" stroke="#2b303a" stroke-width="6"/><line x1="489.9846985779441" y1="497.5065778087482" x2="499.38926261462365" y2="510.45084971874735" stroke="#2b303a" stroke-width="6"/><line x1="480.5065778087482" y1="502.3359215540352" x2="485.45084971874735" y2="517.5528258147576" stroke="#2b303a" stroke-width="6"/><line x1="470.0" y1="504.0" x2="470.0" y2="520.0" stroke="#2b303a" stroke-width="6"/><line x1="459.4934221912518" y1="502.3359215540352" x2="454.54915028125265" y2="517.5528258147576" stroke="#2b303a" stroke-width="6"/><line x1="450.0153014220559" y1="497.5065778087482" x2="440.61073738537635" y2="510.45084971874735" stroke="#2b303a" stroke-width="6"/><line x1="442.4934221912518" y1="489.9846985779441" x2="429.54915028125265" y2="499.38926261462365" stroke="#2b303a" stroke-width="6"/><line x1="437.6640784459648" y1="480.5065778087482" x2="422.4471741852423" y2="485.45084971874735" stroke="#2b303a" stroke-width="6"/><line x1="436.0" y1="470.0" x2="420.0" y2="470.0" stroke="#2b303a" stroke-width="6"/><line x1="437.6640784459648" y1="459.4934221912518" x2="422.4471741852423" y2="454.54915028125265" stroke="#2b303a" stroke-width="6"/><line x1="442.4934221912518" y1="450.0153014220559" x2="429.54915028125265" y2="440.61073738537635" stroke="#2b303a" stroke-width="6"/><line x1="450.0153014220559" y1="442.4934221912518" x2="440.61073738537635" y2="429.54915028125265" stroke="#2b303a" stroke-width="6"/><line x1="459.4934221912518" y1="437.6640784459648" x2="454.54915028125265" y2="422.4471741852423" stroke="#2b303a" stroke-width="6"/><line x1="470.0" y1="436.0" x2="470.0" y2="420.0" stroke="#2b303a" stroke-width="6"/><line x1="480.5065778087482" y1="437.6640784459648" x2="485.45084971874735" y2="422.4471741852423" stroke="#2b303a" stroke-width="6"/><line x1="489.9846985779441" y1="442.4934221912518" x2="499.38926261462365" y2="429.54915028125265" stroke="#2b303a" stroke-width="6"/><line x1="497.5065778087482" y1="450.0153014220559" x2="510.45084971874735" y2="440.61073738537635" stroke="#2b303a" stroke-width="6"/><line x1="502.3359215540352" y1="459.4934221912518" x2="517.5528258147576" y2="454.5491502812526" stroke="#2b303a" stroke-width="6"/><rect x="545" y="440" width="70" height="60" rx="10" fill="#2b303a"/>
</svg>
